<svg width="18" height="20" viewBox="0 0 18 20" fill="none" xmlns="http://www.w3.org/2000/svg">
<path d="M15.158 0.000403861C14.4945 0.000959405 13.9336 0.157901 13.4752 0.471228C13.0174 0.78511 12.6892 1.25177 12.4905 1.8712C12.4514 1.99007 12.421 2.1118 12.3996 2.23536C12.3737 2.38181 12.3526 2.52911 12.3363 2.67702C12.3148 2.87831 12.3013 3.08042 12.2957 3.28284C12.2881 3.51783 12.2846 3.80005 12.2852 4.12949C12.2845 4.41203 12.2883 4.69456 12.2965 4.97697C12.3021 5.17939 12.3156 5.3815 12.3371 5.58279C12.3532 5.73069 12.374 5.87799 12.3996 6.02445H12.3956C12.4172 6.14831 12.4478 6.27032 12.4873 6.38944C12.6865 7.00832 13.0149 7.47498 13.4728 7.78941C13.9311 8.10274 14.4926 8.2594 15.1572 8.2594C15.8066 8.2594 16.404 8.08191 16.8659 7.75691C17.3286 7.43192 17.629 6.9936 17.8197 6.38194C17.8814 6.18611 17.9293 5.91695 17.9634 5.60696C17.993 5.2726 18.0047 4.93682 17.9983 4.60114V3.91782C17.9983 3.83894 17.9605 3.79949 17.8847 3.79949H15.3975C15.3217 3.79949 15.2838 3.83866 15.2838 3.91699V4.71364C15.2838 4.79142 15.3217 4.83031 15.3975 4.83031H16.7498C16.7953 4.83086 16.818 4.85475 16.818 4.90197C16.818 5.20197 16.818 5.41863 16.7888 5.62279C16.758 5.82612 16.7076 5.99528 16.6695 6.12778C16.5818 6.44861 16.387 6.6811 16.1516 6.85777C15.9162 7.03443 15.5525 7.14943 15.1556 7.14943C14.7131 7.14943 14.4242 7.02443 14.1733 6.85527C13.9249 6.6861 13.7536 6.47694 13.6294 6.09278C13.5631 5.88731 13.5229 5.67387 13.5101 5.45779C13.4976 5.27577 13.4884 5.09352 13.4825 4.91114C13.4744 4.69448 13.4706 4.43365 13.4712 4.12865C13.4704 3.86805 13.4742 3.60746 13.4825 3.347C13.4883 3.1646 13.4978 2.98235 13.5109 2.80035C13.5259 2.58503 13.5662 2.37236 13.6311 2.16703C13.7333 1.82462 13.9457 1.52792 14.2334 1.32538C14.5126 1.12205 14.7148 1.03205 15.1564 1.03205C15.5687 1.03205 15.8179 1.11205 16.085 1.28454C16.3529 1.45704 16.5136 1.69454 16.7052 2.05536C16.7425 2.13369 16.7961 2.15314 16.8659 2.11369L17.7134 1.75537C17.7746 1.71537 17.7859 1.66009 17.7475 1.58954C17.6464 1.36839 17.5194 1.16074 17.3692 0.971218C17.2116 0.774796 17.0258 0.604223 16.818 0.465394C16.5919 0.314253 16.3447 0.199066 16.085 0.123735C15.7834 0.0369394 15.4712 -0.00460129 15.158 0.000403861ZM5.92909 4.86364C4.55722 4.86364 3.46459 4.9353 2.44096 4.9353C1.51068 4.9353 0.58122 4.9353 0 4.91114V5.60362L0.883194 5.77029C1.48714 5.89028 1.8362 6.17695 1.8362 7.65692V17.0634C1.8362 18.5442 1.48714 18.83 0.883194 18.9492L0 19.1159V19.8092C0.62749 19.785 1.72093 19.7375 2.81275 19.7375C3.85992 19.7375 5.20825 19.785 5.78947 19.8092V19.1167L4.57995 18.95C3.95246 18.8542 3.62694 18.5442 3.62694 17.0634V13.0768C4.18543 13.1243 4.67411 13.1243 5.41768 13.1243C6.83664 15.7268 8.18578 17.6842 8.9529 18.5909C9.65101 19.4508 10.7201 20 12.0692 20C12.4646 20 12.8834 19.9283 13.1391 19.8083V19.1883C12.3022 19.1883 11.4645 18.5917 10.8597 17.9234C9.8369 16.7767 8.46503 14.9384 7.32451 12.8618C9.20779 12.4077 10.604 10.5935 10.604 8.77856C10.604 6.10528 8.58111 4.86364 5.9299 4.86364H5.92909ZM5.51104 5.93862C7.46413 5.93862 8.62738 6.9886 8.62738 8.89856C8.62738 10.7844 7.37159 12.0502 5.3016 12.0502C4.51095 12.0502 4.16189 12.0252 3.62694 11.9785V5.98695C4.1627 5.93778 4.88273 5.93778 5.51022 5.93778L5.51104 5.93862Z" fill="black"/>
</svg>
