<svg width="19" height="22" viewBox="0 0 19 22" fill="none" xmlns="http://www.w3.org/2000/svg">
<path d="M17.9053 2.44418V0.88401L19 0H7.15352L0 6.43236H4.74413C4.73572 6.55104 4.73168 6.67001 4.732 6.789C4.732 7.98325 5.13189 8.97107 5.93232 9.76021C6.73281 10.5507 7.71863 10.9432 8.88588 10.9432C9.15855 10.9432 9.42589 10.9221 9.68554 10.8845C9.52454 11.2569 9.44329 11.602 9.44329 11.9239C9.44329 12.4896 9.69247 13.0944 10.1892 13.7367C8.01616 13.8897 6.41955 14.2943 5.40178 14.9492C4.81851 15.3216 4.34945 15.7916 3.99553 16.3546C3.64156 16.9218 3.46505 17.5299 3.46505 18.1858C3.46505 18.7385 3.57925 19.2362 3.80949 19.6789C4.03968 20.1215 4.33998 20.485 4.71295 20.7665C5.08503 21.0511 5.51432 21.2879 5.99895 21.4809C6.48269 21.6725 6.963 21.8085 7.44236 21.8855C7.91338 21.9615 8.38938 21.9998 8.86611 22C9.6121 22 10.3589 21.9007 11.1118 21.7028C11.863 21.5032 12.5674 21.2077 13.226 20.8152C13.8828 20.4253 14.4176 19.8936 14.8278 19.2272C15.2371 18.558 15.4423 17.8061 15.4423 16.9736C15.4423 16.3424 15.3177 15.7682 15.0684 15.2468C14.821 14.727 14.518 14.2991 14.1572 13.9666C13.7972 13.6336 13.4372 13.3275 13.0763 13.0518C12.7163 12.7742 12.4117 12.4932 12.1642 12.2031C11.9158 11.914 11.7912 11.6271 11.7912 11.3447C11.7912 11.0627 11.8872 10.7905 12.0801 10.5274C12.2715 10.2633 12.5051 10.009 12.7785 9.76508C13.052 9.52159 13.3254 9.25129 13.598 8.95537C13.8706 8.66049 14.1043 8.27779 14.2964 7.80908C14.4894 7.34044 14.5846 6.80963 14.5846 6.21884C14.5846 5.44809 14.4435 4.81748 14.1666 4.31022C14.1337 4.25167 14.0991 4.20693 14.0627 4.13709L17.2146 1.46317V2.44395C16.8051 2.49723 16.8477 2.75017 16.8477 3.05324V10.4248C16.8477 10.7661 17.1177 11.0455 17.4478 11.0455H17.6687C17.9987 11.0455 18.2687 10.7662 18.2687 10.4248V3.05324C18.2687 2.75092 18.3118 2.49815 17.9053 2.44418ZM11.9591 15.1905C12.0222 15.2335 12.1642 15.3498 12.3865 15.5364C12.6109 15.7222 12.763 15.8627 12.8444 15.9612C12.9636 16.1039 13.0813 16.2481 13.1975 16.3936C13.3533 16.5869 13.4588 16.7547 13.5142 16.8939C13.5696 17.0359 13.6258 17.2067 13.683 17.4065C13.7375 17.6032 13.7652 17.8069 13.7652 18.0116C13.7652 18.9883 13.4017 19.712 12.6765 20.1806C11.9496 20.6492 11.0833 20.8838 10.0768 20.8838C9.56801 20.8838 9.06866 20.8212 8.57794 20.7007C8.08816 20.5795 7.61915 20.395 7.17169 20.1506C6.72428 19.9067 6.36433 19.566 6.09167 19.131C5.81817 18.6933 5.68142 18.1906 5.68142 17.6271C5.68142 17.0359 5.83634 16.5219 6.14788 16.0856C6.45771 15.6488 6.86447 15.3184 7.36814 15.0936C7.87011 14.8675 8.37894 14.7073 8.89469 14.6125C9.41436 14.5146 9.94154 14.4656 10.4698 14.4661C10.7173 14.4661 10.9093 14.4804 11.046 14.506C11.0712 14.5185 11.214 14.6246 11.4745 14.8247C11.735 15.023 11.8968 15.1452 11.9591 15.1904V15.1905ZM11.773 9.42815C11.3628 9.93575 10.7908 10.1894 10.0587 10.1894C9.4018 10.1894 8.82368 9.9165 8.32698 9.36948C7.82851 8.82389 7.47282 8.20485 7.2556 7.51151C7.03755 6.81777 6.92849 6.13743 6.92849 5.46918C6.92857 4.68466 7.1276 4.01672 7.52561 3.46534C7.92366 2.91248 8.49486 2.63547 9.23913 2.63547C9.89684 2.63547 10.4783 2.92411 10.9803 3.50384C11.484 4.08163 11.8449 4.73063 12.0613 5.44993C12.2785 6.16837 12.3865 6.85529 12.3865 7.51151C12.3865 8.28185 12.1815 8.92146 11.7731 9.42815H11.773Z" fill="black"/>
</svg>
