<?xml version="1.0" encoding="utf-8"?>
<!-- Generator: Adobe Illustrator 16.0.0, SVG Export Plug-In . SVG Version: 6.00 Build 0)  -->
<!DOCTYPE svg PUBLIC "-//W3C//DTD SVG 1.1//EN" "http://www.w3.org/Graphics/SVG/1.1/DTD/svg11.dtd">
<svg version="1.1" id="Layer_1" xmlns="http://www.w3.org/2000/svg" xmlns:xlink="http://www.w3.org/1999/xlink" x="0px" y="0px"
	 width="22.184px" height="16.771px" viewBox="0 0 22.184 16.771" enable-background="new 0 0 22.184 16.771" xml:space="preserve">
<path fill="#A7A9AC" d="M18.684,3.91c0-0.589-0.478-1.068-1.067-1.068H5.483c-0.587,0-1.068,0.479-1.068,1.068v8.292
	c0,0.589,0.481,1.065,1.068,1.065h12.138c0.588,0,1.066-0.477,1.066-1.065h-0.003V3.91z M17.611,12.332
	c-0.089,0.091-0.207,0.138-0.326,0.138c-0.107,0-0.223-0.041-0.307-0.12l-3.996-3.795l-1.121,1.003
	c-0.083,0.073-0.191,0.115-0.299,0.115c-0.106,0-0.212-0.038-0.298-0.115l-1.09-0.971l-4.018,3.757
	c-0.085,0.079-0.197,0.12-0.306,0.12c-0.121,0-0.238-0.05-0.33-0.144c-0.169-0.183-0.16-0.465,0.021-0.633l3.957-3.706L5.522,4.428
	C5.336,4.26,5.32,3.978,5.487,3.792c0.166-0.186,0.447-0.2,0.634-0.035l4.301,3.848c0.027,0.021,0.05,0.041,0.074,0.064
	c0,0,0.003,0.006,0.007,0.009l1.056,0.944l5.419-4.862c0.186-0.165,0.466-0.15,0.633,0.032c0.166,0.186,0.149,0.468-0.034,0.636
	L13.65,7.948l3.944,3.748C17.775,11.864,17.781,12.152,17.611,12.332z"/>
</svg>
