<?xml version="1.0" encoding="utf-8"?>
<!-- Generator: Adobe Illustrator 16.0.0, SVG Export Plug-In . SVG Version: 6.00 Build 0)  -->
<!DOCTYPE svg PUBLIC "-//W3C//DTD SVG 1.1//EN" "http://www.w3.org/Graphics/SVG/1.1/DTD/svg11.dtd">
<svg version="1.1" id="Layer_1" xmlns="http://www.w3.org/2000/svg" xmlns:xlink="http://www.w3.org/1999/xlink" x="0px" y="0px"
	 width="22.184px" height="16.771px" viewBox="0 0 22.184 16.771" enable-background="new 0 0 22.184 16.771" xml:space="preserve">
<g>
	<g>
		<g>
			<g>
				<path fill="#A7A9AC" d="M16.239,11.137l-1.463-1.463c-0.292-0.291-0.774-0.283-1.076,0.02l-0.737,0.736
					c-0.046-0.027-0.093-0.053-0.144-0.082c-0.468-0.256-1.104-0.611-1.773-1.281c-0.672-0.672-1.026-1.311-1.285-1.775
					C9.733,7.24,9.707,7.193,9.68,7.148l0.494-0.494l0.244-0.244c0.303-0.301,0.311-0.783,0.021-1.074L8.975,3.871
					C8.685,3.58,8.201,3.59,7.899,3.893L7.487,4.307l0.012,0.01c-0.138,0.178-0.255,0.381-0.34,0.6
					C7.08,5.125,7.03,5.324,7.006,5.525C6.814,7.127,7.545,8.59,9.533,10.576c2.745,2.746,4.958,2.537,5.053,2.529
					c0.209-0.025,0.407-0.076,0.609-0.154c0.219-0.084,0.422-0.201,0.599-0.338l0.009,0.008l0.418-0.408
					C16.52,11.91,16.53,11.428,16.239,11.137z"/>
			</g>
		</g>
	</g>
</g>
</svg>
